<svg width="19" height="20" viewBox="0 0 19 20" fill="none" xmlns="http://www.w3.org/2000/svg">
<path d="M9.5 19.9054C11.3789 19.9054 13.2157 19.3482 14.7779 18.3044C16.3402 17.2605 17.5578 15.7768 18.2769 14.0409C18.9959 12.305 19.184 10.3949 18.8175 8.55204C18.4509 6.70922 17.5461 5.01648 16.2175 3.68789C14.8889 2.35929 13.1962 1.4545 11.3534 1.08794C9.51054 0.72138 7.60041 0.909512 5.86451 1.62854C4.12861 2.34758 2.64491 3.56522 1.60104 5.12748C0.557165 6.68975 0 8.52648 0 10.4054C0.00272419 12.9241 1.00449 15.3389 2.78549 17.1199C4.5665 18.9009 6.98128 19.9027 9.5 19.9054ZM9.5 4.86373C9.73487 4.86373 9.96446 4.93338 10.1597 5.06386C10.355 5.19435 10.5072 5.37981 10.5971 5.5968C10.687 5.81378 10.7105 6.05255 10.6647 6.2829C10.6189 6.51326 10.5058 6.72485 10.3397 6.89092C10.1736 7.057 9.96202 7.1701 9.73167 7.21592C9.50132 7.26174 9.26255 7.23822 9.04556 7.14834C8.82858 7.05846 8.64311 6.90626 8.51263 6.71097C8.38215 6.51569 8.3125 6.2861 8.3125 6.05123C8.3125 5.73629 8.43761 5.43424 8.66031 5.21154C8.88301 4.98884 9.18506 4.86373 9.5 4.86373ZM8.70833 8.82207H9.5C9.91993 8.82207 10.3227 8.98888 10.6196 9.28581C10.9165 9.58275 11.0833 9.98547 11.0833 10.4054V15.1554C11.0833 15.3654 10.9999 15.5667 10.8515 15.7152C10.703 15.8637 10.5016 15.9471 10.2917 15.9471C10.0817 15.9471 9.88034 15.8637 9.73187 15.7152C9.58341 15.5667 9.5 15.3654 9.5 15.1554V10.4054H8.70833C8.49837 10.4054 8.29701 10.322 8.14854 10.1735C8.00007 10.0251 7.91667 9.8237 7.91667 9.61373C7.91667 9.40377 8.00007 9.20241 8.14854 9.05394C8.29701 8.90547 8.49837 8.82207 8.70833 8.82207Z" fill="#808080"/>
</svg>
