<svg width="22" height="18" viewBox="0 0 22 18" fill="none" xmlns="http://www.w3.org/2000/svg">
<path d="M4 0.0996094C3.07174 0.0996094 2.1815 0.468358 1.52513 1.12474C0.868749 1.78111 0.5 2.67135 0.5 3.59961V3.95136L11 9.60561L21.5 3.95311V3.59961C21.5 2.67135 21.1312 1.78111 20.4749 1.12474C19.8185 0.468358 18.9283 0.0996094 18 0.0996094H4ZM21.5 5.93936L11.4147 11.3696C11.2873 11.4382 11.1448 11.4742 11 11.4742C10.8552 11.4742 10.7127 11.4382 10.5852 11.3696L0.5 5.93936V14.0996C0.5 15.0279 0.868749 15.9181 1.52513 16.5745C2.1815 17.2309 3.07174 17.5996 4 17.5996H18C18.9283 17.5996 19.8185 17.2309 20.4749 16.5745C21.1312 15.9181 21.5 15.0279 21.5 14.0996V5.93936Z" fill="#1A1C1E"/>
</svg>
