<svg width="22" height="22" viewBox="0 0 22 22" fill="none" xmlns="http://www.w3.org/2000/svg">
<path d="M7.26348 2.00796C6.94766 1.24507 6.11504 0.839011 5.31934 1.05639L1.70996 2.04077C0.996289 2.23764 0.5 2.88569 0.5 3.62397C0.5 13.7712 8.72773 21.999 18.875 21.999C19.6133 21.999 20.2613 21.5027 20.4582 20.789L21.4426 17.1796C21.66 16.3839 21.2539 15.5513 20.491 15.2355L16.5535 13.5949C15.885 13.316 15.1098 13.5087 14.6545 14.0707L12.9975 16.0927C10.11 14.7269 7.77207 12.389 6.40625 9.50151L8.42832 7.84858C8.99023 7.38921 9.18301 6.61811 8.9041 5.94956L7.26348 2.01206V2.00796Z" fill="#1A1C1E"/>
</svg>
