<svg width="24" height="25" viewBox="0 0 24 25" fill="none" xmlns="http://www.w3.org/2000/svg">
<path d="M11.9993 16.4993C11.7656 16.4998 11.5392 16.4184 11.3593 16.2693L5.3593 11.2693C5.15508 11.0996 5.02666 10.8556 5.00228 10.5912C4.9779 10.3268 5.05956 10.0635 5.2293 9.8593C5.39904 9.65508 5.64295 9.52666 5.90738 9.50228C6.1718 9.4779 6.43508 9.55956 6.6393 9.7293L11.9993 14.2093L17.3593 9.8893C17.4616 9.80623 17.5793 9.7442 17.7056 9.70677C17.832 9.66934 17.9645 9.65724 18.0955 9.67118C18.2265 9.68512 18.3535 9.72482 18.4691 9.78799C18.5848 9.85117 18.6868 9.93657 18.7693 10.0393C18.8609 10.1421 18.9302 10.2627 18.973 10.3936C19.0158 10.5245 19.0311 10.6628 19.018 10.7999C19.0048 10.9369 18.9635 11.0698 18.8967 11.1902C18.8298 11.3105 18.7387 11.4158 18.6293 11.4993L12.6293 16.3293C12.4442 16.4548 12.2224 16.5147 11.9993 16.4993Z" fill="#939393"/>
</svg>
