<svg width="30" height="24" viewBox="0 0 30 24" fill="none" xmlns="http://www.w3.org/2000/svg">
<path d="M2.8125 0.509766C1.25977 0.509766 0 1.76953 0 3.32227C0 4.20703 0.416016 5.03906 1.125 5.57227L13.875 15.1348C14.543 15.6328 15.457 15.6328 16.125 15.1348L28.875 5.57227C29.584 5.03906 30 4.20703 30 3.32227C30 1.76953 28.7402 0.509766 27.1875 0.509766H2.8125ZM0 7.07227V19.2598C0 21.3281 1.68164 23.0098 3.75 23.0098H26.25C28.3184 23.0098 30 21.3281 30 19.2598V7.07227L17.25 16.6348C15.9141 17.6367 14.0859 17.6367 12.75 16.6348L0 7.07227Z" fill="#1A1C1E"/>
</svg>
