<svg width="48" height="48" viewBox="0 0 48 48" fill="none" xmlns="http://www.w3.org/2000/svg">
<path d="M47.5881 10.0945C47.9171 9.76561 48.0621 9.29523 47.9753 8.83815C47.8885 8.38108 47.5813 7.99646 47.1547 7.81095L42.4146 5.74933L40.7512 0.945921C40.5927 0.48819 40.2097 0.144259 39.7376 0.0357086C39.2656 -0.0726546 38.7709 0.0692674 38.4282 0.411792L35.7469 3.09312C32.1391 1.09712 28.0042 0.00636805 23.9836 0.00636805C17.5773 0.00636805 11.5545 2.50106 7.02458 7.03104C2.4946 11.561 0 17.5837 0 23.9899C0 30.396 2.4947 36.4189 7.02467 40.9488C11.5545 45.4787 17.5774 47.9735 23.9837 47.9735C30.39 47.9735 36.4127 45.4788 40.9427 40.9488C45.4726 36.4189 47.9674 30.3961 47.9674 23.9899C47.9674 19.9991 46.9747 16.0828 45.0886 12.5942L47.5881 10.0945ZM37.7393 15.9664L34.8334 15.1866L41.602 8.46254L44.1395 9.56623L37.7393 15.9664ZM37.2098 23.9899C37.2098 31.2828 31.2765 37.2161 23.9836 37.2161C16.6906 37.2161 10.7574 31.2828 10.7574 23.9899C10.7574 16.6969 16.6906 10.7637 23.9836 10.7637C26.1796 10.7637 28.0512 11.1969 29.8431 12.1221L30.5682 15.4596L28.7851 17.231C27.4292 16.2649 25.7716 15.6962 23.9835 15.6962C19.4102 15.6962 15.6897 19.4167 15.6897 23.99C15.6897 28.5632 19.4102 32.2838 23.9835 32.2838C28.5568 32.2838 32.2773 28.5632 32.2773 23.99C32.2773 22.218 31.7184 20.5742 30.7681 19.2251L32.5257 17.479L35.9839 18.407C36.8187 20.1166 37.2098 21.8996 37.2098 23.9899ZM29.4652 23.9899C29.4652 27.0124 27.0061 29.4715 23.9836 29.4715C20.9611 29.4715 18.502 27.0124 18.502 23.9899C18.502 20.9673 20.9611 18.5083 23.9836 18.5083C24.9902 18.5083 25.9335 18.7822 26.7451 19.2576L22.9436 23.0341C22.3926 23.5814 22.3897 24.4717 22.937 25.0226C23.2118 25.2992 23.5731 25.4377 23.9346 25.4377C24.2928 25.4377 24.6513 25.3016 24.9255 25.0292L28.7288 21.2509C29.1962 22.0575 29.4652 22.9926 29.4652 23.9899ZM38.8287 3.98825L39.67 6.4176L32.9352 13.1082L32.3593 10.4577L38.8287 3.98825ZM45.155 23.9899C45.155 29.645 42.9528 34.9615 38.954 38.9603C34.9553 42.959 29.6386 45.1612 23.9836 45.1612C18.3286 45.1612 13.0119 42.959 9.01317 38.9603C5.01442 34.9615 2.81219 29.645 2.81219 23.9899C2.81219 18.3347 5.01442 13.0182 9.01317 9.01954C13.0119 5.02079 18.3286 2.81856 23.9836 2.81856C27.2708 2.81856 30.6487 3.64675 33.667 5.17293L29.828 9.01195C29.8242 9.01569 29.821 9.01963 29.8172 9.02338C28.0132 8.3043 26.0894 7.95147 23.9835 7.95147C15.1399 7.95147 7.9451 15.1463 7.9451 23.9899C7.9451 32.8335 15.1399 40.0283 23.9835 40.0283C32.8271 40.0283 40.0219 32.8335 40.0219 23.9899C40.0219 22.0097 39.7277 20.2484 39.1091 18.5693C39.1238 18.5558 39.1393 18.5433 39.1535 18.5291L43.0013 14.6812C44.4145 17.5664 45.155 20.7501 45.155 23.9899Z" fill="white"/>
</svg>
