<svg width="27" height="27" viewBox="0 0 27 27" fill="none" xmlns="http://www.w3.org/2000/svg">
<path d="M17.3571 0C16.2904 0 15.4286 0.86183 15.4286 1.92857C15.4286 2.99531 16.2904 3.85714 17.3571 3.85714H20.4127L10.2094 14.0665C9.45603 14.8199 9.45603 16.0433 10.2094 16.7967C10.9627 17.55 12.1862 17.55 12.9395 16.7967L23.1429 6.58728V9.64286C23.1429 10.7096 24.0047 11.5714 25.0714 11.5714C26.1382 11.5714 27 10.7096 27 9.64286V1.92857C27 0.86183 26.1382 0 25.0714 0H17.3571ZM4.82143 1.92857C2.15759 1.92857 0 4.08616 0 6.75V22.1786C0 24.8424 2.15759 27 4.82143 27H20.25C22.9138 27 25.0714 24.8424 25.0714 22.1786V17.3571C25.0714 16.2904 24.2096 15.4286 23.1429 15.4286C22.0761 15.4286 21.2143 16.2904 21.2143 17.3571V22.1786C21.2143 22.7089 20.7804 23.1429 20.25 23.1429H4.82143C4.29107 23.1429 3.85714 22.7089 3.85714 22.1786V6.75C3.85714 6.21964 4.29107 5.78571 4.82143 5.78571H9.64286C10.7096 5.78571 11.5714 4.92388 11.5714 3.85714C11.5714 2.7904 10.7096 1.92857 9.64286 1.92857H4.82143Z" fill="#007FFF"/>
</svg>
