<svg width="31" height="31" viewBox="0 0 31 31" fill="none" xmlns="http://www.w3.org/2000/svg">
<path d="M9.66211 1.70054C9.21094 0.610696 8.02148 0.030618 6.88477 0.341165L1.72852 1.74742C0.708984 2.02867 0 2.95445 0 4.00913C0 18.5052 11.7539 30.2591 26.25 30.2591C27.3047 30.2591 28.2305 29.5502 28.5117 28.5306L29.918 23.3744C30.2285 22.2377 29.6484 21.0482 28.5586 20.597L22.9336 18.2533C21.9785 17.8548 20.8711 18.1302 20.2207 18.933L17.8535 21.8216C13.7285 19.8705 10.3887 16.5306 8.4375 12.4056L11.3262 10.0443C12.1289 9.38804 12.4043 8.28648 12.0059 7.3314L9.66211 1.7064V1.70054Z" fill="#1A1C1E"/>
</svg>
