<svg width="48" height="48" viewBox="0 0 48 48" fill="none" xmlns="http://www.w3.org/2000/svg">
<g clip-path="url(#clip0_5766_6270)">
<path d="M45.5136 6.63097C44.9642 5.37104 44.125 4.25774 43.0637 3.38119C42.0025 2.50464 40.7491 1.88946 39.405 1.58545C39.0744 0.941016 38.5146 0.442656 37.835 0.187836C37.5228 0.0701168 37.1901 0.0161884 36.8566 0.0292592C36.5231 0.04233 36.1956 0.122133 35.8937 0.263919C35.403 0.507474 35.0017 0.898633 34.7463 1.38205C34.491 1.86548 34.3946 2.41669 34.4709 2.9577L23.283 8.05532C22.8295 8.2611 22.4382 8.58216 22.1486 8.98628C21.8589 9.39041 21.6809 9.86337 21.6326 10.3577L14.9332 13.3791C14.3354 13.6492 13.8696 14.1447 13.6383 14.7569C13.4069 15.3691 13.429 16.0479 13.6995 16.6439L13.7084 16.6631L8.13825 19.1759C7.71647 19.3664 7.36076 19.6772 7.11599 20.0691C6.87121 20.4609 6.74835 20.9162 6.76289 21.3775L4.5073 22.3961C4.06599 21.9641 3.487 21.6996 2.87062 21.6484C2.25423 21.5971 1.63928 21.7624 1.13227 22.1155C0.625259 22.4686 0.258127 22.9874 0.0944647 23.5819C-0.0691979 24.1765 -0.0190833 24.8093 0.236128 25.3709L1.59292 28.3594C1.84795 28.9207 2.29179 29.3754 2.84764 29.645C3.4035 29.9146 4.03641 29.982 4.63687 29.8356C5.23733 29.6892 5.76756 29.3382 6.13583 28.8433C6.5041 28.3485 6.68723 27.7409 6.65355 27.1256L8.9951 26.0687C9.33199 26.3293 9.73378 26.4934 10.1573 26.5434C10.5807 26.5934 11.0099 26.5274 11.3985 26.3525L16.9667 23.8355L16.9756 23.8547C17.1657 24.2724 17.4689 24.6289 17.8511 24.8844C18.2332 25.1399 18.6792 25.2841 19.1391 25.301C19.1812 25.4422 19.2298 25.5793 19.2848 25.7123L8.80667 42.3424C8.08455 42.425 7.42147 42.7798 6.95335 43.334C6.48523 43.8883 6.24751 44.6 6.28892 45.3233C6.33034 46.0466 6.64775 46.7268 7.17609 47.2243C7.70444 47.7219 8.40371 47.9992 9.13057 47.9993H12.6639C13.2069 47.9999 13.7387 47.8455 14.1965 47.5545C14.6543 47.2635 15.019 46.8479 15.2475 46.357C15.476 45.866 15.5588 45.3201 15.486 44.7837C15.4133 44.2474 15.188 43.743 14.8369 43.3301L23.6702 29.3129L32.4408 43.3253C32.0879 43.7376 31.861 44.2421 31.7868 44.779C31.7127 45.3159 31.7944 45.8628 32.0224 46.3548C32.2504 46.8468 32.6151 47.2634 33.0733 47.5552C33.5315 47.847 34.064 48.0019 34.6077 48.0014H38.1424C38.8735 48.0088 39.5794 47.7355 40.1139 47.2382C40.6483 46.7409 40.9704 46.0577 41.0132 45.3302C41.0561 44.6027 40.8165 43.8867 40.3442 43.3304C39.8718 42.7742 39.2028 42.4204 38.4759 42.3424L28.017 25.6389C28.3976 24.6509 28.4301 23.5633 28.1091 22.5544C28.6736 22.6547 29.2554 22.5811 29.7768 22.3433L40.9399 17.2553C41.3054 17.7031 41.8085 18.0186 42.3718 18.1531C42.935 18.2876 43.527 18.2337 44.0564 17.9997C44.666 17.687 45.1326 17.1539 45.3608 16.5095C45.589 15.8652 45.5615 15.1582 45.2839 14.5334C45.9343 13.3241 46.2936 11.9807 46.3334 10.6092C46.3733 9.23769 46.0926 7.87575 45.5136 6.63097ZM43.7167 7.44185C44.3817 8.88732 44.5404 10.5136 44.1671 12.0597L40.5272 4.04823C41.9459 4.78693 43.0706 5.9843 43.7167 7.4439V7.44185ZM5.48312 24.1145L7.41756 23.2419L7.93676 24.3852L6.00232 25.2578L5.48312 24.1145ZM4.6414 27.5074C4.6102 27.5905 4.56277 27.6666 4.50186 27.7313C4.44095 27.7961 4.36777 27.8481 4.28656 27.8844C4.12306 27.9566 3.93765 27.9617 3.77037 27.8987C3.6031 27.8358 3.46739 27.7097 3.39258 27.5479L2.03303 24.5607C1.99632 24.4797 1.97598 24.3923 1.97317 24.3034C1.97036 24.2146 1.98513 24.1261 2.01664 24.0429C2.04816 23.9597 2.09579 23.8836 2.15684 23.8188C2.21788 23.754 2.29113 23.7018 2.3724 23.6652C2.45368 23.6286 2.54139 23.6083 2.63053 23.6055C2.71967 23.6027 2.80849 23.6174 2.89192 23.6488C2.97534 23.6803 3.05175 23.7277 3.11677 23.7886C3.18179 23.8494 3.23415 23.9224 3.27086 24.0035L4.62421 26.9885C4.66147 27.0696 4.68218 27.1572 4.68513 27.2463C4.68808 27.3353 4.67322 27.4241 4.6414 27.5074ZM10.5857 24.56C10.542 24.5822 10.4942 24.595 10.4452 24.5977C10.3963 24.6004 10.3473 24.5929 10.3014 24.5757C10.2556 24.5585 10.2138 24.5319 10.1788 24.4977C10.1438 24.4635 10.1163 24.4224 10.0981 24.377L8.77091 21.455C8.73066 21.3663 8.72739 21.2652 8.76182 21.1741C8.79625 21.083 8.86556 21.0092 8.95452 20.969L14.5247 18.4562L16.1559 22.0479L10.5857 24.56ZM18.7725 23.0473L15.4964 15.833C15.4415 15.712 15.437 15.5742 15.484 15.45C15.5309 15.3257 15.6254 15.2251 15.7467 15.1702L22.0961 12.305L25.4299 19.6454C24.7712 19.3733 24.0588 19.2544 23.347 19.2978C22.6352 19.3413 21.9427 19.5459 21.3221 19.8961C20.7016 20.2464 20.1693 20.733 19.7658 21.3191C19.3622 21.9051 19.098 22.5752 18.9933 23.2783C18.8955 23.2273 18.8176 23.1453 18.7718 23.0452L18.7725 23.0473ZM34.6077 42.3253C34.4582 42.3253 34.309 42.337 34.1614 42.3602L25.3667 28.3128C25.8962 28.1025 26.383 27.798 26.8032 27.4142L36.1385 42.3253H34.6077ZM12.6639 42.3253H11.151L20.5165 27.4574C20.9407 27.8342 21.43 28.1313 21.9606 28.3341L13.1191 42.3623C12.9686 42.3378 12.8164 42.3254 12.6639 42.3253ZM26.3556 23.9664C26.3556 24.5026 26.1961 25.0268 25.8973 25.4726C25.5985 25.9185 25.1737 26.2661 24.6768 26.4714C24.1799 26.6767 23.633 26.7305 23.1054 26.6261C22.5777 26.5217 22.093 26.2637 21.7124 25.8848C21.3318 25.5058 21.0725 25.0229 20.9672 24.4971C20.862 23.9713 20.9154 23.4262 21.1209 22.9307C21.3264 22.4351 21.6747 22.0114 22.1217 21.7132C22.5687 21.4149 23.0944 21.2554 23.6323 21.2548C24.3541 21.2548 25.0464 21.5404 25.557 22.0489C26.0676 22.5573 26.3548 23.247 26.3556 23.9664ZM12.6639 46.0356H9.13057C8.89849 46.0356 8.67591 45.9437 8.5118 45.7801C8.34769 45.6165 8.2555 45.3947 8.2555 45.1633C8.2555 44.932 8.34769 44.7102 8.5118 44.5466C8.67591 44.383 8.89849 44.2911 9.13057 44.2911H12.6639C12.8959 44.2911 13.1185 44.383 13.2826 44.5466C13.4467 44.7102 13.5389 44.932 13.5389 45.1633C13.5389 45.3947 13.4467 45.6165 13.2826 45.7801C13.1185 45.9437 12.8959 46.0356 12.6639 46.0356ZM38.1403 46.0356H34.6077C34.3756 46.0356 34.153 45.9437 33.9889 45.7801C33.8248 45.6165 33.7326 45.3947 33.7326 45.1633C33.7326 44.932 33.8248 44.7102 33.9889 44.5466C34.153 44.383 34.3756 44.2911 34.6077 44.2911H38.1424C38.3745 44.2911 38.597 44.383 38.7611 44.5466C38.9253 44.7102 39.0174 44.932 39.0174 45.1633C39.0174 45.3947 38.9253 45.6165 38.7611 45.7801C38.597 45.9437 38.3745 46.0356 38.1424 46.0356H38.1403ZM28.9598 20.5543C28.856 20.6011 28.744 20.6271 28.6302 20.6308C28.5164 20.6345 28.4029 20.6158 28.2963 20.5757C28.1897 20.5357 28.0921 20.4751 28.009 20.3975C27.9259 20.3198 27.859 20.2266 27.8121 20.1232L23.664 10.9897C23.6171 10.886 23.5911 10.7741 23.5876 10.6604C23.5841 10.5467 23.6031 10.4335 23.6435 10.3271C23.6839 10.2207 23.745 10.1233 23.8232 10.0405C23.9014 9.95766 23.9952 9.891 24.0993 9.84432L35.1517 4.80907L40.0156 15.517L28.9598 20.5543ZM43.2078 16.2271C43.1429 16.2554 43.073 16.2706 43.0021 16.2716C42.9313 16.2727 42.8609 16.2597 42.7952 16.2333C42.6796 16.1871 42.5742 16.1185 42.4852 16.0316C42.3963 15.9447 42.3254 15.8411 42.2767 15.7268L36.5222 3.05983C36.4249 2.89268 36.3936 2.69535 36.4346 2.50646C36.4756 2.31756 36.5858 2.1507 36.7436 2.03852C36.8086 2.01032 36.8785 1.99525 36.9493 1.99419C37.0201 1.99313 37.0905 2.00611 37.1562 2.03235C37.272 2.07865 37.3773 2.1473 37.4663 2.23435C37.5553 2.3214 37.6261 2.42513 37.6748 2.53958L43.4279 15.2051C43.5252 15.3723 43.5564 15.5696 43.5155 15.7585C43.4745 15.9474 43.3643 16.1143 43.2064 16.2264L43.2078 16.2271Z" fill="white"/>
<path d="M23.6349 25.1488C24.2908 25.1488 24.8225 24.6188 24.8225 23.965C24.8225 23.3112 24.2908 22.7812 23.6349 22.7812C22.979 22.7812 22.4473 23.3112 22.4473 23.965C22.4473 24.6188 22.979 25.1488 23.6349 25.1488Z" fill="white"/>
<path d="M32.8731 8.4835C32.8181 8.3666 32.7405 8.26164 32.6448 8.17462C32.5491 8.08761 32.4371 8.02026 32.3152 7.9764C32.1934 7.93254 32.064 7.91304 31.9346 7.91902C31.8052 7.925 31.6783 7.95634 31.561 8.01124L31.2969 8.13462C31.0936 8.22941 30.9287 8.39054 30.8297 8.59137C30.7306 8.7922 30.7033 9.02071 30.7522 9.23912C30.8011 9.45754 30.9233 9.65278 31.0986 9.79257C31.274 9.93236 31.4919 10.0083 31.7164 10.0079C31.9579 9.98965 32.1918 9.91523 32.3993 9.79064C32.636 9.6799 32.8189 9.47999 32.9077 9.23486C32.9966 8.98974 32.9841 8.71947 32.8731 8.4835Z" fill="white"/>
<path d="M28.71 9.34503L26.4764 10.3896C26.359 10.4445 26.2536 10.5219 26.1662 10.6173C26.0788 10.7128 26.0111 10.8245 25.9671 10.946C25.923 11.0676 25.9033 11.1966 25.9092 11.3257C25.9152 11.4548 25.9466 11.5815 26.0016 11.6985C26.0566 11.8155 26.1343 11.9206 26.23 12.0077C26.3258 12.0948 26.4379 12.1623 26.5598 12.2062C26.6817 12.2502 26.8112 12.2697 26.9407 12.2638C27.0702 12.2579 27.1973 12.2266 27.3147 12.1718L29.5476 11.1272C29.665 11.0723 29.7704 10.9949 29.8578 10.8995C29.9452 10.804 30.0129 10.6923 30.057 10.5708C30.1011 10.4492 30.1207 10.3202 30.1148 10.1911C30.1089 10.062 30.0775 9.93534 30.0224 9.81832C29.9674 9.7013 29.8898 9.59624 29.794 9.50913C29.6982 9.42201 29.5862 9.35455 29.4642 9.31061C29.3423 9.26666 29.2129 9.24708 29.0833 9.25298C28.9538 9.25889 28.8267 9.29016 28.7093 9.34503H28.71Z" fill="white"/>
<path d="M9.09875 4.69146C9.46054 4.69146 9.81421 4.58453 10.115 4.38419C10.4158 4.18384 10.6503 3.89909 10.7887 3.56593C10.9272 3.23277 10.9634 2.86617 10.8928 2.51249C10.8223 2.15881 10.648 1.83394 10.3922 1.57895C10.1364 1.32396 9.81046 1.15031 9.45562 1.07996C9.10079 1.00961 8.73299 1.04571 8.39874 1.18371C8.06449 1.32171 7.77881 1.5554 7.57781 1.85524C7.37681 2.15507 7.26953 2.50758 7.26953 2.86819C7.26953 3.35175 7.46225 3.81551 7.8053 4.15744C8.14835 4.49937 8.61361 4.69146 9.09875 4.69146Z" fill="white"/>
<path d="M47.2255 0C47.0724 0 46.9226 0.0452656 46.7953 0.130073C46.668 0.21488 46.5687 0.335419 46.5101 0.476448C46.4515 0.617477 46.4362 0.772662 46.466 0.922377C46.4959 1.07209 46.5697 1.20962 46.678 1.31755C46.7863 1.42549 46.9242 1.499 47.0744 1.52878C47.2246 1.55856 47.3803 1.54328 47.5218 1.48486C47.6633 1.42644 47.7843 1.32752 47.8693 1.2006C47.9544 1.07368 47.9998 0.924454 47.9998 0.771806C47.9997 0.567166 47.918 0.370959 47.7728 0.226257C47.6276 0.0815548 47.4308 0.000181499 47.2255 0V0Z" fill="white"/>
<path d="M15.2087 5.23527L16.7608 5.93237C16.7949 5.94849 16.8254 5.97131 16.8504 5.99946C16.8755 6.02761 16.8946 6.06051 16.9066 6.09619L17.5255 7.83789C17.5403 7.8908 17.5721 7.93743 17.616 7.97065C17.6599 8.00386 17.7135 8.02184 17.7686 8.02184C17.8237 8.02184 17.8773 8.00386 17.9212 7.97065C17.9651 7.93743 17.9969 7.8908 18.0117 7.83789L18.6306 6.09619C18.6426 6.06051 18.6617 6.02761 18.6867 5.99946C18.7118 5.97131 18.7423 5.94849 18.7764 5.93237L20.3285 5.23527C20.379 5.20933 20.4213 5.17001 20.4509 5.12165C20.4805 5.07329 20.4962 5.01774 20.4962 4.9611C20.4962 4.90446 20.4805 4.84891 20.4509 4.80054C20.4213 4.75218 20.379 4.71287 20.3285 4.68692L18.7764 3.98983C18.7422 3.97374 18.7117 3.95093 18.6867 3.92277C18.6616 3.89462 18.6426 3.8617 18.6306 3.82601L18.0117 2.08431C17.9973 2.03098 17.9657 1.98386 17.9218 1.95026C17.8778 1.91665 17.824 1.89844 17.7686 1.89844C17.7132 1.89844 17.6593 1.91665 17.6154 1.95026C17.5714 1.98386 17.5398 2.03098 17.5255 2.08431L16.9066 3.82601C16.8946 3.86169 16.8755 3.89458 16.8504 3.92273C16.8254 3.95088 16.7949 3.9737 16.7608 3.98983L15.2087 4.68692C15.1582 4.71287 15.1158 4.75218 15.0862 4.80054C15.0567 4.84891 15.041 4.90446 15.041 4.9611C15.041 5.01774 15.0567 5.07329 15.0862 5.12165C15.1158 5.17001 15.1582 5.20933 15.2087 5.23527Z" fill="white"/>
<path d="M1.31381 13.1424L3.44561 14.0821C3.49218 14.1035 3.53391 14.1342 3.5683 14.1721C3.60269 14.21 3.62903 14.2545 3.64573 14.3028L4.49982 16.6505C4.52101 16.7224 4.56498 16.7855 4.62517 16.8304C4.68535 16.8753 4.75851 16.8996 4.83369 16.8996C4.90887 16.8996 4.98203 16.8753 5.04222 16.8304C5.1024 16.7855 5.14638 16.7224 5.16756 16.6505L6.02166 14.3028C6.03836 14.2545 6.06469 14.21 6.09908 14.1721C6.13347 14.1342 6.17521 14.1035 6.22177 14.0821L8.35358 13.1424C8.42188 13.1081 8.47929 13.0556 8.5194 12.9908C8.55952 12.9259 8.58076 12.8512 8.58076 12.775C8.58076 12.6988 8.55952 12.6241 8.5194 12.5592C8.47929 12.4943 8.42188 12.4418 8.35358 12.4076L6.22177 11.4678C6.17521 11.4464 6.13347 11.4158 6.09908 11.3779C6.06469 11.3399 6.03836 11.2955 6.02166 11.2471L5.16756 8.8995C5.14638 8.8276 5.1024 8.76447 5.04222 8.71957C4.98203 8.67466 4.90887 8.65039 4.83369 8.65039C4.75851 8.65039 4.68535 8.67466 4.62517 8.71957C4.56498 8.76447 4.52101 8.8276 4.49982 8.8995L3.64573 11.2471C3.62903 11.2955 3.60269 11.3399 3.5683 11.3779C3.53391 11.4158 3.49218 11.4464 3.44561 11.4678L1.31381 12.4076C1.24533 12.4418 1.18774 12.4943 1.1475 12.5592C1.10725 12.6242 1.08594 12.699 1.08594 12.7753C1.08594 12.8517 1.10725 12.9265 1.1475 12.9914C1.18774 13.0564 1.24533 13.1089 1.31381 13.1431V13.1424Z" fill="white"/>
</g>
<defs>
<clipPath id="clip0_5766_6270">
<rect width="48" height="48" fill="white"/>
</clipPath>
</defs>
</svg>
